# xmcd
#
# Track frame offsets:
#	150
#	16613
#	31975
#	51778
#	62754
#	77424
#	91197
#	109244
#	126506
#	144444
#	161820
#	183618
#	201224
#
# Disc length: 2846 seconds
#
# Revision: 0
# Processed by: cddbd v1.5PL3 Copyright (c) Steve Scherf et al.
# Submitted via: dBpowerAMP V4.0
#
DISCID=ab0b1c0d
DTITLE=Manuel Dias - romance del rio
DYEAR=2004
DGENRE=Folklore
TTITLE0=romance del rio
TTITLE1=lastima
TTITLE2=corazon camaleon
TTITLE3=hermana niña
TTITLE4=pequeña golondrina
TTITLE5=la quinta de yisel
TTITLE6=la obera
TTITLE7=madre cancion
TTITLE8=al descubierto
TTITLE9=no llores mas
TTITLE10=amor 
TTITLE11=lucas
TTITLE12=vecino compadre
EXTD=Manuel Dias - Romance del rio  ,musica folklorica de treinta y tres 
EXTT0=
EXTT1=
EXTT2=
EXTT3=
EXTT4=
EXTT5=
EXTT6=
EXTT7=
EXTT8=
EXTT9=
EXTT10=
EXTT11=
EXTT12=
PLAYORDER=
